<svg xmlns="http://www.w3.org/2000/svg" xmlns:xlink="http://www.w3.org/1999/xlink" width="195" zoomAndPan="magnify" viewBox="0 0 153 44.999999" height="60" preserveAspectRatio="xMidYMid meet" version="1.0"><defs><g/><clipPath id="677fe057b0"><path d="M 3 6 L 38 6 L 38 28 L 3 28 Z M 3 6 " clip-rule="nonzero"/></clipPath><clipPath id="f01aad324e"><path d="M 34.445312 11.789062 L 31.449219 6.589844 L 19.160156 6.589844 L 16.078125 11.917969 L 13.003906 17.25 L 15.402344 21.40625 L 16.15625 22.710938 L 19.160156 27.910156 L 31.449219 27.910156 L 37.59375 17.25 C 37.59375 17.25 34.445312 11.789062 34.445312 11.789062 Z M 31.683594 20.933594 L 29.558594 24.621094 L 21.039062 24.621094 L 16.789062 17.246094 L 18.914062 13.5625 L 21.039062 9.875 L 29.550781 9.875 L 31.839844 13.832031 L 33.816406 17.25 L 31.683594 20.9375 Z M 14.632812 22.730469 C 14.457031 23.039062 14.226562 23.3125 13.941406 23.558594 C 13.1875 24.21875 12.179688 24.546875 10.925781 24.546875 C 9.128906 24.546875 7.335938 23.710938 5.539062 22.035156 L 3.265625 24.699219 C 5.460938 26.832031 8.023438 27.898438 10.953125 27.898438 C 13.253906 27.898438 15.113281 27.269531 16.53125 26.007812 Z M 15.738281 9.855469 L 17.625 6.59375 L 5.269531 6.59375 L 4.671875 16.855469 L 6.882812 18.324219 C 8.199219 17.703125 9.488281 17.394531 10.742188 17.394531 C 11.035156 17.394531 11.089844 17.414062 11.355469 17.445312 L 11.472656 17.246094 L 13.167969 14.304688 C 12.621094 14.210938 12.042969 14.164062 11.429688 14.164062 C 10.3125 14.164062 9.207031 14.363281 8.109375 14.761719 L 8.441406 9.855469 Z M 15.738281 9.855469 " clip-rule="nonzero"/></clipPath><linearGradient x1="414.45001" gradientTransform="matrix(0.102732, 0, 0, 0.102778, -22.146416, -32.990077)" y1="592.530046" x2="414.45001" gradientUnits="userSpaceOnUse" y2="385.090053" id="2b95ffd739"><stop stop-opacity="1" stop-color="rgb(57.762146%, 44.729614%, 24.943542%)" offset="0"/><stop stop-opacity="1" stop-color="rgb(57.919312%, 44.903564%, 25.082397%)" offset="0.0078125"/><stop stop-opacity="1" stop-color="rgb(58.236694%, 45.252991%, 25.361633%)" offset="0.015625"/><stop stop-opacity="1" stop-color="rgb(58.552551%, 45.602417%, 25.640869%)" offset="0.0234375"/><stop stop-opacity="1" stop-color="rgb(58.869934%, 45.950317%, 25.920105%)" offset="0.03125"/><stop stop-opacity="1" stop-color="rgb(59.185791%, 46.299744%, 26.199341%)" offset="0.0390625"/><stop stop-opacity="1" stop-color="rgb(59.503174%, 46.64917%, 26.478577%)" offset="0.046875"/><stop stop-opacity="1" stop-color="rgb(59.820557%, 46.998596%, 26.757812%)" offset="0.0546875"/><stop stop-opacity="1" stop-color="rgb(60.136414%, 47.346497%, 27.037048%)" offset="0.0625"/><stop stop-opacity="1" stop-color="rgb(60.453796%, 47.695923%, 27.316284%)" offset="0.0703125"/><stop stop-opacity="1" stop-color="rgb(60.769653%, 48.045349%, 27.59552%)" offset="0.078125"/><stop stop-opacity="1" stop-color="rgb(61.087036%, 48.394775%, 27.874756%)" offset="0.0859375"/><stop stop-opacity="1" stop-color="rgb(61.402893%, 48.742676%, 28.153992%)" offset="0.09375"/><stop stop-opacity="1" stop-color="rgb(61.720276%, 49.092102%, 28.433228%)" offset="0.101562"/><stop stop-opacity="1" stop-color="rgb(62.036133%, 49.441528%, 28.712463%)" offset="0.109375"/><stop stop-opacity="1" stop-color="rgb(62.353516%, 49.790955%, 28.991699%)" offset="0.117187"/><stop stop-opacity="1" stop-color="rgb(62.670898%, 50.138855%, 29.270935%)" offset="0.125"/><stop stop-opacity="1" stop-color="rgb(62.986755%, 50.488281%, 29.550171%)" offset="0.132813"/><stop stop-opacity="1" stop-color="rgb(63.304138%, 50.837708%, 29.829407%)" offset="0.140625"/><stop stop-opacity="1" stop-color="rgb(63.619995%, 51.187134%, 30.108643%)" offset="0.148438"/><stop stop-opacity="1" stop-color="rgb(63.937378%, 51.535034%, 30.387878%)" offset="0.15625"/><stop stop-opacity="1" stop-color="rgb(64.253235%, 51.88446%, 30.667114%)" offset="0.164063"/><stop stop-opacity="1" stop-color="rgb(64.570618%, 52.233887%, 30.94635%)" offset="0.171875"/><stop stop-opacity="1" stop-color="rgb(64.886475%, 52.583313%, 31.225586%)" offset="0.179688"/><stop stop-opacity="1" stop-color="rgb(65.203857%, 52.931213%, 31.504822%)" offset="0.1875"/><stop stop-opacity="1" stop-color="rgb(65.52124%, 53.28064%, 31.784058%)" offset="0.195312"/><stop stop-opacity="1" stop-color="rgb(65.837097%, 53.630066%, 32.063293%)" offset="0.203125"/><stop stop-opacity="1" stop-color="rgb(66.15448%, 53.979492%, 32.342529%)" offset="0.210937"/><stop stop-opacity="1" stop-color="rgb(66.470337%, 54.327393%, 32.621765%)" offset="0.21875"/><stop stop-opacity="1" stop-color="rgb(66.78772%, 54.676819%, 32.901001%)" offset="0.226562"/><stop stop-opacity="1" stop-color="rgb(67.103577%, 55.026245%, 33.180237%)" offset="0.234375"/><stop stop-opacity="1" stop-color="rgb(67.420959%, 55.375671%, 33.459473%)" offset="0.242187"/><stop stop-opacity="1" stop-color="rgb(67.736816%, 55.723572%, 33.738708%)" offset="0.25"/><stop stop-opacity="1" stop-color="rgb(68.054199%, 56.072998%, 34.017944%)" offset="0.257813"/><stop stop-opacity="1" stop-color="rgb(68.371582%, 56.422424%, 34.29718%)" offset="0.265625"/><stop stop-opacity="1" stop-color="rgb(68.687439%, 56.771851%, 34.576416%)" offset="0.273438"/><stop stop-opacity="1" stop-color="rgb(69.004822%, 57.119751%, 34.855652%)" offset="0.28125"/><stop stop-opacity="1" stop-color="rgb(69.320679%, 57.469177%, 35.134888%)" offset="0.289062"/><stop stop-opacity="1" stop-color="rgb(69.638062%, 57.818604%, 35.414124%)" offset="0.296875"/><stop stop-opacity="1" stop-color="rgb(69.953918%, 58.16803%, 35.693359%)" offset="0.304687"/><stop stop-opacity="1" stop-color="rgb(70.271301%, 58.51593%, 35.972595%)" offset="0.3125"/><stop stop-opacity="1" stop-color="rgb(70.588684%, 58.865356%, 36.251831%)" offset="0.320312"/><stop stop-opacity="1" stop-color="rgb(70.904541%, 59.214783%, 36.531067%)" offset="0.328125"/><stop stop-opacity="1" stop-color="rgb(71.221924%, 59.564209%, 36.810303%)" offset="0.335937"/><stop stop-opacity="1" stop-color="rgb(71.537781%, 59.912109%, 37.089539%)" offset="0.34375"/><stop stop-opacity="1" stop-color="rgb(71.855164%, 60.261536%, 37.368774%)" offset="0.351563"/><stop stop-opacity="1" stop-color="rgb(72.171021%, 60.610962%, 37.64801%)" offset="0.359375"/><stop stop-opacity="1" stop-color="rgb(72.488403%, 60.960388%, 37.927246%)" offset="0.367188"/><stop stop-opacity="1" stop-color="rgb(72.80426%, 61.308289%, 38.206482%)" offset="0.375"/><stop stop-opacity="1" stop-color="rgb(73.121643%, 61.657715%, 38.485718%)" offset="0.382812"/><stop stop-opacity="1" stop-color="rgb(73.439026%, 62.007141%, 38.764954%)" offset="0.390625"/><stop stop-opacity="1" stop-color="rgb(73.754883%, 62.356567%, 39.044189%)" offset="0.398437"/><stop stop-opacity="1" stop-color="rgb(74.072266%, 62.704468%, 39.323425%)" offset="0.40625"/><stop stop-opacity="1" stop-color="rgb(74.388123%, 63.053894%, 39.602661%)" offset="0.414063"/><stop stop-opacity="1" stop-color="rgb(74.705505%, 63.40332%, 39.881897%)" offset="0.421875"/><stop stop-opacity="1" stop-color="rgb(75.021362%, 63.752747%, 40.161133%)" offset="0.429688"/><stop stop-opacity="1" stop-color="rgb(75.338745%, 64.100647%, 40.440369%)" offset="0.4375"/><stop stop-opacity="1" stop-color="rgb(75.654602%, 64.450073%, 40.719604%)" offset="0.445313"/><stop stop-opacity="1" stop-color="rgb(75.971985%, 64.7995%, 40.99884%)" offset="0.453125"/><stop stop-opacity="1" stop-color="rgb(76.289368%, 65.148926%, 41.278076%)" offset="0.460938"/><stop stop-opacity="1" stop-color="rgb(76.605225%, 65.496826%, 41.557312%)" offset="0.46875"/><stop stop-opacity="1" stop-color="rgb(76.922607%, 65.846252%, 41.836548%)" offset="0.476563"/><stop stop-opacity="1" stop-color="rgb(77.238464%, 66.195679%, 42.115784%)" offset="0.484375"/><stop stop-opacity="1" stop-color="rgb(77.555847%, 66.545105%, 42.39502%)" offset="0.492188"/><stop stop-opacity="1" stop-color="rgb(77.871704%, 66.893005%, 42.674255%)" offset="0.5"/><stop stop-opacity="1" stop-color="rgb(78.189087%, 67.242432%, 42.953491%)" offset="0.507812"/><stop stop-opacity="1" stop-color="rgb(78.504944%, 67.591858%, 43.232727%)" offset="0.515625"/><stop stop-opacity="1" stop-color="rgb(78.822327%, 67.941284%, 43.511963%)" offset="0.523438"/><stop stop-opacity="1" stop-color="rgb(79.139709%, 68.289185%, 43.791199%)" offset="0.53125"/><stop stop-opacity="1" stop-color="rgb(79.455566%, 68.638611%, 44.070435%)" offset="0.539062"/><stop stop-opacity="1" stop-color="rgb(79.772949%, 68.988037%, 44.34967%)" offset="0.546875"/><stop stop-opacity="1" stop-color="rgb(80.088806%, 69.337463%, 44.628906%)" offset="0.554687"/><stop stop-opacity="1" stop-color="rgb(80.406189%, 69.685364%, 44.908142%)" offset="0.5625"/><stop stop-opacity="1" stop-color="rgb(80.722046%, 70.03479%, 45.187378%)" offset="0.570312"/><stop stop-opacity="1" stop-color="rgb(81.039429%, 70.384216%, 45.466614%)" offset="0.578125"/><stop stop-opacity="1" stop-color="rgb(81.356812%, 70.733643%, 45.74585%)" offset="0.585937"/><stop stop-opacity="1" stop-color="rgb(81.672668%, 71.081543%, 46.025085%)" offset="0.59375"/><stop stop-opacity="1" stop-color="rgb(81.990051%, 71.430969%, 46.304321%)" offset="0.601562"/><stop stop-opacity="1" stop-color="rgb(82.305908%, 71.780396%, 46.583557%)" offset="0.609375"/><stop stop-opacity="1" stop-color="rgb(82.623291%, 72.129822%, 46.862793%)" offset="0.617187"/><stop stop-opacity="1" stop-color="rgb(82.939148%, 72.477722%, 47.142029%)" offset="0.625"/><stop stop-opacity="1" stop-color="rgb(83.256531%, 72.827148%, 47.421265%)" offset="0.632813"/><stop stop-opacity="1" stop-color="rgb(83.572388%, 73.176575%, 47.7005%)" offset="0.640625"/><stop stop-opacity="1" stop-color="rgb(83.889771%, 73.526001%, 47.979736%)" offset="0.648438"/><stop stop-opacity="1" stop-color="rgb(84.207153%, 73.873901%, 48.258972%)" offset="0.65625"/><stop stop-opacity="1" stop-color="rgb(84.52301%, 74.223328%, 48.538208%)" offset="0.664063"/><stop stop-opacity="1" stop-color="rgb(84.840393%, 74.572754%, 48.817444%)" offset="0.671875"/><stop stop-opacity="1" stop-color="rgb(85.15625%, 74.92218%, 49.09668%)" offset="0.679688"/><stop stop-opacity="1" stop-color="rgb(85.406494%, 75.196838%, 49.317932%)" offset="0.6875"/><stop stop-opacity="1" stop-color="rgb(85.499573%, 75.299072%, 49.398804%)" offset="0.75"/><stop stop-opacity="1" stop-color="rgb(85.499573%, 75.299072%, 49.398804%)" offset="1"/></linearGradient><clipPath id="d99805bced"><path d="M 3 6 L 18 6 L 18 28 L 3 28 Z M 3 6 " clip-rule="nonzero"/></clipPath><clipPath id="0b0369b81e"><path d="M 14.632812 22.730469 C 14.457031 23.035156 14.226562 23.3125 13.941406 23.558594 C 13.1875 24.21875 12.179688 24.546875 10.925781 24.546875 C 9.128906 24.546875 7.335938 23.710938 5.539062 22.03125 L 3.265625 24.695312 C 5.460938 26.832031 8.023438 27.898438 10.953125 27.898438 C 13.253906 27.898438 15.113281 27.269531 16.53125 26.007812 Z M 15.738281 9.855469 L 17.625 6.59375 L 5.269531 6.59375 L 4.671875 16.855469 L 6.882812 18.324219 C 8.199219 17.703125 9.488281 17.394531 10.742188 17.394531 C 11.035156 17.394531 11.089844 17.410156 11.355469 17.445312 L 11.472656 17.246094 L 13.167969 14.300781 C 12.621094 14.207031 12.042969 14.164062 11.429688 14.164062 C 10.3125 14.164062 9.207031 14.363281 8.109375 14.761719 L 8.441406 9.855469 Z M 15.738281 9.855469 " clip-rule="nonzero"/></clipPath><linearGradient x1="238.285663" gradientTransform="matrix(0.102732, 0, 0, 0.102778, -22.146416, -32.990077)" y1="394.223881" x2="411.812231" gradientUnits="userSpaceOnUse" y2="567.758992" id="0c5a402b7f"><stop stop-opacity="1" stop-color="rgb(42.399597%, 27.799988%, 11.399841%)" offset="0"/><stop stop-opacity="1" stop-color="rgb(42.399597%, 27.799988%, 11.399841%)" offset="0.125"/><stop stop-opacity="1" stop-color="rgb(42.399597%, 27.799988%, 11.399841%)" offset="0.1875"/><stop stop-opacity="1" stop-color="rgb(42.399597%, 27.799988%, 11.399841%)" offset="0.203125"/><stop stop-opacity="1" stop-color="rgb(42.474365%, 27.882385%, 11.465454%)" offset="0.210937"/><stop stop-opacity="1" stop-color="rgb(42.790222%, 28.231812%, 11.746216%)" offset="0.214844"/><stop stop-opacity="1" stop-color="rgb(43.032837%, 28.49884%, 11.961365%)" offset="0.21875"/><stop stop-opacity="1" stop-color="rgb(43.275452%, 28.765869%, 12.174988%)" offset="0.222656"/><stop stop-opacity="1" stop-color="rgb(43.518066%, 29.032898%, 12.390137%)" offset="0.226562"/><stop stop-opacity="1" stop-color="rgb(43.759155%, 29.299927%, 12.605286%)" offset="0.230469"/><stop stop-opacity="1" stop-color="rgb(44.00177%, 29.566956%, 12.820435%)" offset="0.234375"/><stop stop-opacity="1" stop-color="rgb(44.242859%, 29.833984%, 13.034058%)" offset="0.238281"/><stop stop-opacity="1" stop-color="rgb(44.485474%, 30.102539%, 13.249207%)" offset="0.242188"/><stop stop-opacity="1" stop-color="rgb(44.728088%, 30.369568%, 13.464355%)" offset="0.246094"/><stop stop-opacity="1" stop-color="rgb(44.970703%, 30.636597%, 13.679504%)" offset="0.25"/><stop stop-opacity="1" stop-color="rgb(45.211792%, 30.903625%, 13.893127%)" offset="0.253906"/><stop stop-opacity="1" stop-color="rgb(45.454407%, 31.170654%, 14.108276%)" offset="0.257812"/><stop stop-opacity="1" stop-color="rgb(45.697021%, 31.437683%, 14.323425%)" offset="0.261719"/><stop stop-opacity="1" stop-color="rgb(45.939636%, 31.704712%, 14.538574%)" offset="0.265625"/><stop stop-opacity="1" stop-color="rgb(46.180725%, 31.971741%, 14.752197%)" offset="0.269531"/><stop stop-opacity="1" stop-color="rgb(46.42334%, 32.23877%, 14.967346%)" offset="0.273438"/><stop stop-opacity="1" stop-color="rgb(46.664429%, 32.505798%, 15.180969%)" offset="0.277344"/><stop stop-opacity="1" stop-color="rgb(46.907043%, 32.774353%, 15.396118%)" offset="0.28125"/><stop stop-opacity="1" stop-color="rgb(47.149658%, 33.041382%, 15.611267%)" offset="0.285156"/><stop stop-opacity="1" stop-color="rgb(47.392273%, 33.308411%, 15.826416%)" offset="0.289062"/><stop stop-opacity="1" stop-color="rgb(47.633362%, 33.575439%, 16.040039%)" offset="0.292969"/><stop stop-opacity="1" stop-color="rgb(47.875977%, 33.842468%, 16.255188%)" offset="0.296875"/><stop stop-opacity="1" stop-color="rgb(48.117065%, 34.109497%, 16.470337%)" offset="0.300781"/><stop stop-opacity="1" stop-color="rgb(48.35968%, 34.376526%, 16.685486%)" offset="0.304688"/><stop stop-opacity="1" stop-color="rgb(48.602295%, 34.643555%, 16.899109%)" offset="0.308594"/><stop stop-opacity="1" stop-color="rgb(48.84491%, 34.912109%, 17.114258%)" offset="0.3125"/><stop stop-opacity="1" stop-color="rgb(49.085999%, 35.179138%, 17.329407%)" offset="0.316406"/><stop stop-opacity="1" stop-color="rgb(49.328613%, 35.446167%, 17.544556%)" offset="0.320312"/><stop stop-opacity="1" stop-color="rgb(49.571228%, 35.713196%, 17.758179%)" offset="0.324219"/><stop stop-opacity="1" stop-color="rgb(49.813843%, 35.980225%, 17.973328%)" offset="0.328125"/><stop stop-opacity="1" stop-color="rgb(50.054932%, 36.247253%, 18.186951%)" offset="0.332031"/><stop stop-opacity="1" stop-color="rgb(50.297546%, 36.514282%, 18.4021%)" offset="0.335938"/><stop stop-opacity="1" stop-color="rgb(50.538635%, 36.781311%, 18.617249%)" offset="0.339844"/><stop stop-opacity="1" stop-color="rgb(50.78125%, 37.04834%, 18.832397%)" offset="0.34375"/><stop stop-opacity="1" stop-color="rgb(51.023865%, 37.315369%, 19.046021%)" offset="0.347656"/><stop stop-opacity="1" stop-color="rgb(51.266479%, 37.583923%, 19.261169%)" offset="0.351562"/><stop stop-opacity="1" stop-color="rgb(51.507568%, 37.850952%, 19.476318%)" offset="0.355469"/><stop stop-opacity="1" stop-color="rgb(51.750183%, 38.117981%, 19.691467%)" offset="0.359375"/><stop stop-opacity="1" stop-color="rgb(51.992798%, 38.38501%, 19.90509%)" offset="0.363281"/><stop stop-opacity="1" stop-color="rgb(52.235413%, 38.652039%, 20.120239%)" offset="0.367187"/><stop stop-opacity="1" stop-color="rgb(52.476501%, 38.919067%, 20.333862%)" offset="0.371094"/><stop stop-opacity="1" stop-color="rgb(52.719116%, 39.186096%, 20.549011%)" offset="0.375"/><stop stop-opacity="1" stop-color="rgb(52.960205%, 39.453125%, 20.76416%)" offset="0.378906"/><stop stop-opacity="1" stop-color="rgb(53.20282%, 39.720154%, 20.979309%)" offset="0.382812"/><stop stop-opacity="1" stop-color="rgb(53.445435%, 39.987183%, 21.192932%)" offset="0.386719"/><stop stop-opacity="1" stop-color="rgb(53.688049%, 40.255737%, 21.408081%)" offset="0.390625"/><stop stop-opacity="1" stop-color="rgb(53.929138%, 40.522766%, 21.62323%)" offset="0.394531"/><stop stop-opacity="1" stop-color="rgb(54.171753%, 40.789795%, 21.838379%)" offset="0.398437"/><stop stop-opacity="1" stop-color="rgb(54.412842%, 41.056824%, 22.052002%)" offset="0.402344"/><stop stop-opacity="1" stop-color="rgb(54.655457%, 41.323853%, 22.267151%)" offset="0.40625"/><stop stop-opacity="1" stop-color="rgb(54.898071%, 41.590881%, 22.4823%)" offset="0.410156"/><stop stop-opacity="1" stop-color="rgb(55.140686%, 41.85791%, 22.697449%)" offset="0.414062"/><stop stop-opacity="1" stop-color="rgb(55.381775%, 42.124939%, 22.911072%)" offset="0.417969"/><stop stop-opacity="1" stop-color="rgb(55.62439%, 42.393494%, 23.126221%)" offset="0.421875"/><stop stop-opacity="1" stop-color="rgb(55.867004%, 42.660522%, 23.339844%)" offset="0.425781"/><stop stop-opacity="1" stop-color="rgb(56.109619%, 42.927551%, 23.554993%)" offset="0.429688"/><stop stop-opacity="1" stop-color="rgb(56.350708%, 43.19458%, 23.770142%)" offset="0.433594"/><stop stop-opacity="1" stop-color="rgb(56.593323%, 43.461609%, 23.985291%)" offset="0.4375"/><stop stop-opacity="1" stop-color="rgb(56.834412%, 43.728638%, 24.198914%)" offset="0.441406"/><stop stop-opacity="1" stop-color="rgb(57.077026%, 43.995667%, 24.414062%)" offset="0.445312"/><stop stop-opacity="1" stop-color="rgb(57.319641%, 44.262695%, 24.629211%)" offset="0.449219"/><stop stop-opacity="1" stop-color="rgb(57.562256%, 44.529724%, 24.84436%)" offset="0.453125"/><stop stop-opacity="1" stop-color="rgb(57.803345%, 44.796753%, 25.057983%)" offset="0.457031"/><stop stop-opacity="1" stop-color="rgb(58.045959%, 45.065308%, 25.273132%)" offset="0.460937"/><stop stop-opacity="1" stop-color="rgb(58.288574%, 45.332336%, 25.488281%)" offset="0.464844"/><stop stop-opacity="1" stop-color="rgb(58.531189%, 45.599365%, 25.70343%)" offset="0.46875"/><stop stop-opacity="1" stop-color="rgb(58.772278%, 45.866394%, 25.917053%)" offset="0.472656"/><stop stop-opacity="1" stop-color="rgb(59.014893%, 46.133423%, 26.132202%)" offset="0.476562"/><stop stop-opacity="1" stop-color="rgb(59.255981%, 46.400452%, 26.345825%)" offset="0.480469"/><stop stop-opacity="1" stop-color="rgb(59.498596%, 46.66748%, 26.560974%)" offset="0.484375"/><stop stop-opacity="1" stop-color="rgb(59.741211%, 46.934509%, 26.776123%)" offset="0.488281"/><stop stop-opacity="1" stop-color="rgb(59.983826%, 47.203064%, 26.991272%)" offset="0.492187"/><stop stop-opacity="1" stop-color="rgb(60.224915%, 47.470093%, 27.204895%)" offset="0.496094"/><stop stop-opacity="1" stop-color="rgb(60.467529%, 47.737122%, 27.420044%)" offset="0.5"/><stop stop-opacity="1" stop-color="rgb(60.708618%, 48.00415%, 27.635193%)" offset="0.503906"/><stop stop-opacity="1" stop-color="rgb(60.951233%, 48.271179%, 27.850342%)" offset="0.507812"/><stop stop-opacity="1" stop-color="rgb(61.193848%, 48.538208%, 28.063965%)" offset="0.511719"/><stop stop-opacity="1" stop-color="rgb(61.436462%, 48.805237%, 28.279114%)" offset="0.515625"/><stop stop-opacity="1" stop-color="rgb(61.677551%, 49.072266%, 28.494263%)" offset="0.519531"/><stop stop-opacity="1" stop-color="rgb(61.920166%, 49.339294%, 28.709412%)" offset="0.523438"/><stop stop-opacity="1" stop-color="rgb(62.162781%, 49.606323%, 28.923035%)" offset="0.527344"/><stop stop-opacity="1" stop-color="rgb(62.405396%, 49.874878%, 29.138184%)" offset="0.53125"/><stop stop-opacity="1" stop-color="rgb(62.638855%, 50.131226%, 29.342651%)" offset="0.535156"/><stop stop-opacity="1" stop-color="rgb(62.872314%, 50.387573%, 29.547119%)" offset="0.539062"/><stop stop-opacity="1" stop-color="rgb(63.092041%, 50.627136%, 29.734802%)" offset="0.542969"/><stop stop-opacity="1" stop-color="rgb(63.313293%, 50.868225%, 29.924011%)" offset="0.546875"/><stop stop-opacity="1" stop-color="rgb(63.53302%, 51.107788%, 30.111694%)" offset="0.550781"/><stop stop-opacity="1" stop-color="rgb(63.754272%, 51.348877%, 30.300903%)" offset="0.554688"/><stop stop-opacity="1" stop-color="rgb(63.973999%, 51.589966%, 30.488586%)" offset="0.558594"/><stop stop-opacity="1" stop-color="rgb(64.195251%, 51.831055%, 30.677795%)" offset="0.5625"/><stop stop-opacity="1" stop-color="rgb(64.414978%, 52.070618%, 30.865479%)" offset="0.566406"/><stop stop-opacity="1" stop-color="rgb(64.63623%, 52.311707%, 31.053162%)" offset="0.570312"/><stop stop-opacity="1" stop-color="rgb(64.855957%, 52.55127%, 31.240845%)" offset="0.574219"/><stop stop-opacity="1" stop-color="rgb(65.075684%, 52.792358%, 31.430054%)" offset="0.578125"/><stop stop-opacity="1" stop-color="rgb(65.29541%, 53.031921%, 31.617737%)" offset="0.582031"/><stop stop-opacity="1" stop-color="rgb(65.516663%, 53.27301%, 31.806946%)" offset="0.585938"/><stop stop-opacity="1" stop-color="rgb(65.736389%, 53.512573%, 31.994629%)" offset="0.589844"/><stop stop-opacity="1" stop-color="rgb(65.957642%, 53.753662%, 32.183838%)" offset="0.59375"/><stop stop-opacity="1" stop-color="rgb(66.177368%, 53.994751%, 32.371521%)" offset="0.597656"/><stop stop-opacity="1" stop-color="rgb(66.398621%, 54.23584%, 32.56073%)" offset="0.601562"/><stop stop-opacity="1" stop-color="rgb(66.618347%, 54.475403%, 32.748413%)" offset="0.605469"/><stop stop-opacity="1" stop-color="rgb(66.8396%, 54.716492%, 32.937622%)" offset="0.609375"/><stop stop-opacity="1" stop-color="rgb(67.059326%, 54.956055%, 33.125305%)" offset="0.613281"/><stop stop-opacity="1" stop-color="rgb(67.280579%, 55.197144%, 33.314514%)" offset="0.617188"/><stop stop-opacity="1" stop-color="rgb(67.500305%, 55.436707%, 33.502197%)" offset="0.621094"/><stop stop-opacity="1" stop-color="rgb(67.721558%, 55.677795%, 33.691406%)" offset="0.625"/><stop stop-opacity="1" stop-color="rgb(67.941284%, 55.917358%, 33.879089%)" offset="0.628906"/><stop stop-opacity="1" stop-color="rgb(68.162537%, 56.158447%, 34.068298%)" offset="0.632812"/><stop stop-opacity="1" stop-color="rgb(68.382263%, 56.399536%, 34.255981%)" offset="0.636719"/><stop stop-opacity="1" stop-color="rgb(68.603516%, 56.640625%, 34.44519%)" offset="0.640625"/><stop stop-opacity="1" stop-color="rgb(68.823242%, 56.880188%, 34.632874%)" offset="0.644531"/><stop stop-opacity="1" stop-color="rgb(69.044495%, 57.121277%, 34.820557%)" offset="0.648438"/><stop stop-opacity="1" stop-color="rgb(69.264221%, 57.36084%, 35.00824%)" offset="0.652344"/><stop stop-opacity="1" stop-color="rgb(69.485474%, 57.601929%, 35.197449%)" offset="0.65625"/><stop stop-opacity="1" stop-color="rgb(69.7052%, 57.841492%, 35.385132%)" offset="0.660156"/><stop stop-opacity="1" stop-color="rgb(69.926453%, 58.082581%, 35.574341%)" offset="0.664062"/><stop stop-opacity="1" stop-color="rgb(70.146179%, 58.322144%, 35.762024%)" offset="0.667969"/><stop stop-opacity="1" stop-color="rgb(70.367432%, 58.563232%, 35.951233%)" offset="0.671875"/><stop stop-opacity="1" stop-color="rgb(70.587158%, 58.804321%, 36.138916%)" offset="0.675781"/><stop stop-opacity="1" stop-color="rgb(70.808411%, 59.04541%, 36.328125%)" offset="0.679687"/><stop stop-opacity="1" stop-color="rgb(71.028137%, 59.284973%, 36.515808%)" offset="0.683594"/><stop stop-opacity="1" stop-color="rgb(71.247864%, 59.526062%, 36.705017%)" offset="0.6875"/><stop stop-opacity="1" stop-color="rgb(71.46759%, 59.765625%, 36.8927%)" offset="0.691406"/><stop stop-opacity="1" stop-color="rgb(71.688843%, 60.006714%, 37.081909%)" offset="0.695312"/><stop stop-opacity="1" stop-color="rgb(71.908569%, 60.246277%, 37.269592%)" offset="0.699219"/><stop stop-opacity="1" stop-color="rgb(72.129822%, 60.487366%, 37.458801%)" offset="0.703125"/><stop stop-opacity="1" stop-color="rgb(72.349548%, 60.726929%, 37.646484%)" offset="0.707031"/><stop stop-opacity="1" stop-color="rgb(72.570801%, 60.968018%, 37.835693%)" offset="0.710938"/><stop stop-opacity="1" stop-color="rgb(72.790527%, 61.209106%, 38.023376%)" offset="0.714844"/><stop stop-opacity="1" stop-color="rgb(73.01178%, 61.450195%, 38.212585%)" offset="0.71875"/><stop stop-opacity="1" stop-color="rgb(73.231506%, 61.689758%, 38.400269%)" offset="0.722656"/><stop stop-opacity="1" stop-color="rgb(73.452759%, 61.930847%, 38.589478%)" offset="0.726562"/><stop stop-opacity="1" stop-color="rgb(73.672485%, 62.17041%, 38.777161%)" offset="0.730469"/><stop stop-opacity="1" stop-color="rgb(73.893738%, 62.411499%, 38.964844%)" offset="0.734375"/><stop stop-opacity="1" stop-color="rgb(74.113464%, 62.651062%, 39.152527%)" offset="0.738281"/><stop stop-opacity="1" stop-color="rgb(74.334717%, 62.892151%, 39.341736%)" offset="0.742188"/><stop stop-opacity="1" stop-color="rgb(74.554443%, 63.131714%, 39.529419%)" offset="0.746094"/><stop stop-opacity="1" stop-color="rgb(74.775696%, 63.372803%, 39.718628%)" offset="0.75"/><stop stop-opacity="1" stop-color="rgb(74.995422%, 63.613892%, 39.906311%)" offset="0.753906"/><stop stop-opacity="1" stop-color="rgb(75.216675%, 63.85498%, 40.09552%)" offset="0.757812"/><stop stop-opacity="1" stop-color="rgb(75.436401%, 64.094543%, 40.283203%)" offset="0.761719"/><stop stop-opacity="1" stop-color="rgb(75.657654%, 64.335632%, 40.472412%)" offset="0.765625"/><stop stop-opacity="1" stop-color="rgb(75.87738%, 64.575195%, 40.660095%)" offset="0.769531"/><stop stop-opacity="1" stop-color="rgb(76.098633%, 64.816284%, 40.849304%)" offset="0.773437"/><stop stop-opacity="1" stop-color="rgb(76.318359%, 65.055847%, 41.036987%)" offset="0.777344"/><stop stop-opacity="1" stop-color="rgb(76.539612%, 65.296936%, 41.226196%)" offset="0.78125"/><stop stop-opacity="1" stop-color="rgb(76.759338%, 65.536499%, 41.413879%)" offset="0.785156"/><stop stop-opacity="1" stop-color="rgb(76.980591%, 65.777588%, 41.603088%)" offset="0.789062"/><stop stop-opacity="1" stop-color="rgb(77.200317%, 66.018677%, 41.790771%)" offset="0.792969"/><stop stop-opacity="1" stop-color="rgb(77.420044%, 66.259766%, 41.97998%)" offset="0.796875"/><stop stop-opacity="1" stop-color="rgb(77.639771%, 66.499329%, 42.167664%)" offset="0.800781"/><stop stop-opacity="1" stop-color="rgb(77.861023%, 66.740417%, 42.356873%)" offset="0.804688"/><stop stop-opacity="1" stop-color="rgb(78.08075%, 66.97998%, 42.544556%)" offset="0.808594"/><stop stop-opacity="1" stop-color="rgb(78.302002%, 67.221069%, 42.732239%)" offset="0.8125"/><stop stop-opacity="1" stop-color="rgb(78.521729%, 67.460632%, 42.919922%)" offset="0.816406"/><stop stop-opacity="1" stop-color="rgb(78.742981%, 67.701721%, 43.109131%)" offset="0.820313"/><stop stop-opacity="1" stop-color="rgb(78.962708%, 67.941284%, 43.296814%)" offset="0.824219"/><stop stop-opacity="1" stop-color="rgb(79.18396%, 68.182373%, 43.486023%)" offset="0.828125"/><stop stop-opacity="1" stop-color="rgb(79.347229%, 68.367004%, 43.638611%)" offset="0.835938"/><stop stop-opacity="1" stop-color="rgb(79.673767%, 68.733215%, 43.943787%)" offset="0.84375"/><stop stop-opacity="1" stop-color="rgb(79.997253%, 69.0979%, 44.245911%)" offset="0.851562"/><stop stop-opacity="1" stop-color="rgb(80.32074%, 69.462585%, 44.549561%)" offset="0.859375"/><stop stop-opacity="1" stop-color="rgb(80.644226%, 69.827271%, 44.85321%)" offset="0.867188"/><stop stop-opacity="1" stop-color="rgb(80.969238%, 70.191956%, 45.155334%)" offset="0.875"/><stop stop-opacity="1" stop-color="rgb(81.292725%, 70.558167%, 45.458984%)" offset="0.882812"/><stop stop-opacity="1" stop-color="rgb(81.616211%, 70.922852%, 45.762634%)" offset="0.890625"/><stop stop-opacity="1" stop-color="rgb(81.939697%, 71.287537%, 46.064758%)" offset="0.898438"/><stop stop-opacity="1" stop-color="rgb(82.263184%, 71.652222%, 46.368408%)" offset="0.90625"/><stop stop-opacity="1" stop-color="rgb(82.58667%, 72.016907%, 46.672058%)" offset="0.914062"/><stop stop-opacity="1" stop-color="rgb(82.910156%, 72.381592%, 46.974182%)" offset="0.921875"/><stop stop-opacity="1" stop-color="rgb(83.235168%, 72.746277%, 47.277832%)" offset="0.929688"/><stop stop-opacity="1" stop-color="rgb(83.558655%, 73.110962%, 47.581482%)" offset="0.9375"/><stop stop-opacity="1" stop-color="rgb(83.882141%, 73.475647%, 47.883606%)" offset="0.945312"/><stop stop-opacity="1" stop-color="rgb(84.205627%, 73.840332%, 48.187256%)" offset="0.953125"/><stop stop-opacity="1" stop-color="rgb(84.529114%, 74.205017%, 48.490906%)" offset="0.960938"/><stop stop-opacity="1" stop-color="rgb(84.8526%, 74.571228%, 48.79303%)" offset="0.96875"/><stop stop-opacity="1" stop-color="rgb(85.176086%, 74.935913%, 49.09668%)" offset="0.976562"/><stop stop-opacity="1" stop-color="rgb(85.418701%, 75.209045%, 49.324036%)" offset="0.984375"/><stop stop-opacity="1" stop-color="rgb(85.499573%, 75.299072%, 49.398804%)" offset="1"/></linearGradient></defs><g clip-path="url(#677fe057b0)"><g clip-path="url(#f01aad324e)"><path fill="url(#2b95ffd739)" d="M 3.265625 6.589844 L 3.265625 27.910156 L 37.59375 27.910156 L 37.59375 6.589844 Z M 3.265625 6.589844 " fill-rule="nonzero"/></g></g><g clip-path="url(#d99805bced)"><g clip-path="url(#0b0369b81e)"><path fill="url(#0c5a402b7f)" d="M 3.265625 6.59375 L 3.265625 27.898438 L 17.625 27.898438 L 17.625 6.59375 Z M 3.265625 6.59375 " fill-rule="nonzero"/></g></g><path fill="#4e4d4d" d="M 22.253906 32.03125 L 22.257812 31.753906 L 23.765625 31.496094 L 23.765625 31.761719 Z M 22.253906 32.535156 L 22.257812 32.257812 L 23.765625 32 L 23.765625 32.269531 Z M 22.253906 32.535156 " fill-opacity="1" fill-rule="nonzero"/><path fill="#4e4d4d" d="M 23.183594 35.316406 C 23.183594 35.5625 23.242188 35.742188 23.355469 35.859375 C 23.46875 35.976562 23.648438 36.039062 23.886719 36.039062 L 23.886719 36.632812 C 23.476562 36.632812 23.15625 36.515625 22.921875 36.28125 C 22.691406 36.050781 22.574219 35.726562 22.574219 35.316406 L 22.574219 32.929688 L 23.183594 32.929688 Z M 23.183594 35.316406 " fill-opacity="1" fill-rule="nonzero"/><path fill="#4e4d4d" d="M 23.648438 36.550781 C 23.589844 36.492188 23.558594 36.421875 23.558594 36.335938 C 23.558594 36.246094 23.589844 36.175781 23.648438 36.121094 C 23.710938 36.0625 23.789062 36.035156 23.886719 36.035156 L 24.894531 36.035156 L 24.894531 36.632812 L 23.886719 36.632812 C 23.789062 36.632812 23.710938 36.605469 23.648438 36.546875 Z M 23.648438 36.550781 " fill-opacity="1" fill-rule="nonzero"/><path fill="#4e4d4d" d="M 24.65625 36.550781 C 24.597656 36.492188 24.566406 36.421875 24.566406 36.335938 C 24.566406 36.246094 24.597656 36.175781 24.65625 36.121094 C 24.71875 36.0625 24.796875 36.035156 24.894531 36.035156 L 25.902344 36.035156 L 25.902344 36.632812 L 24.894531 36.632812 C 24.796875 36.632812 24.71875 36.605469 24.65625 36.546875 Z M 24.65625 36.550781 " fill-opacity="1" fill-rule="nonzero"/><path fill="#4e4d4d" d="M 25.667969 36.550781 C 25.605469 36.492188 25.578125 36.421875 25.578125 36.335938 C 25.578125 36.246094 25.605469 36.175781 25.667969 36.121094 C 25.726562 36.0625 25.808594 36.035156 25.902344 36.035156 L 26.914062 36.035156 L 26.914062 36.632812 L 25.902344 36.632812 C 25.808594 36.632812 25.726562 36.605469 25.667969 36.546875 Z M 25.667969 36.550781 " fill-opacity="1" fill-rule="nonzero"/><path fill="#4e4d4d" d="M 26.675781 36.550781 C 26.613281 36.492188 26.585938 36.421875 26.585938 36.335938 C 26.585938 36.246094 26.613281 36.175781 26.675781 36.121094 C 26.738281 36.0625 26.816406 36.035156 26.914062 36.035156 L 27.921875 36.035156 L 27.921875 36.632812 L 26.914062 36.632812 C 26.816406 36.632812 26.738281 36.605469 26.675781 36.546875 Z M 26.675781 36.550781 " fill-opacity="1" fill-rule="nonzero"/><path fill="#4e4d4d" d="M 29.757812 33.914062 C 30.125 33.914062 30.433594 34.042969 30.679688 34.308594 C 30.925781 34.570312 31.050781 34.894531 31.050781 35.28125 C 31.050781 35.695312 30.925781 36.023438 30.679688 36.273438 C 30.429688 36.519531 30.132812 36.644531 29.789062 36.644531 C 29.417969 36.644531 29.085938 36.503906 28.792969 36.21875 C 28.601562 36.496094 28.3125 36.632812 27.921875 36.632812 C 27.828125 36.632812 27.75 36.605469 27.6875 36.546875 C 27.625 36.488281 27.59375 36.414062 27.59375 36.328125 C 27.59375 36.238281 27.621094 36.167969 27.683594 36.117188 C 27.746094 36.0625 27.824219 36.039062 27.921875 36.039062 C 28.144531 36.039062 28.289062 35.953125 28.359375 35.78125 C 28.390625 35.710938 28.414062 35.648438 28.425781 35.589844 C 28.441406 35.53125 28.460938 35.453125 28.480469 35.351562 C 28.5 35.25 28.519531 35.15625 28.542969 35.070312 C 28.632812 34.699219 28.78125 34.414062 28.992188 34.214844 C 29.199219 34.015625 29.453125 33.914062 29.757812 33.914062 Z M 29.773438 36.046875 C 29.960938 36.046875 30.121094 35.980469 30.246094 35.839844 C 30.375 35.703125 30.441406 35.515625 30.441406 35.28125 C 30.441406 35.058594 30.375 34.878906 30.246094 34.738281 C 30.121094 34.59375 29.957031 34.523438 29.757812 34.523438 C 29.605469 34.523438 29.476562 34.578125 29.378906 34.679688 C 29.277344 34.785156 29.199219 34.945312 29.136719 35.164062 C 29.097656 35.308594 29.0625 35.472656 29.027344 35.652344 C 29.25 35.917969 29.496094 36.046875 29.773438 36.046875 Z M 29.773438 36.046875 " fill-opacity="1" fill-rule="nonzero"/><path fill="#4e4d4d" d="M 32.347656 35.316406 C 32.347656 35.5625 32.402344 35.742188 32.519531 35.859375 C 32.632812 35.980469 32.808594 36.039062 33.046875 36.039062 L 33.046875 36.632812 C 32.636719 36.632812 32.316406 36.515625 32.085938 36.28125 C 31.851562 36.050781 31.738281 35.726562 31.738281 35.316406 L 31.738281 32.929688 L 32.347656 32.929688 Z M 32.347656 35.316406 " fill-opacity="1" fill-rule="nonzero"/><path fill="#4e4d4d" d="M 32.808594 36.550781 C 32.75 36.492188 32.71875 36.421875 32.71875 36.335938 C 32.71875 36.246094 32.75 36.175781 32.808594 36.121094 C 32.871094 36.0625 32.949219 36.035156 33.046875 36.035156 L 34.054688 36.035156 L 34.054688 36.632812 L 33.046875 36.632812 C 32.949219 36.632812 32.871094 36.605469 32.808594 36.546875 Z M 32.808594 36.550781 " fill-opacity="1" fill-rule="nonzero"/><path fill="#4e4d4d" d="M 36.78125 36.039062 L 36.78125 36.632812 L 34.054688 36.632812 C 33.964844 36.632812 33.886719 36.605469 33.824219 36.546875 C 33.761719 36.488281 33.726562 36.417969 33.726562 36.335938 C 33.726562 36.25 33.761719 36.179688 33.824219 36.125 C 33.886719 36.066406 33.964844 36.039062 34.054688 36.039062 L 34.53125 36.039062 C 34.292969 35.882812 34.171875 35.628906 34.171875 35.277344 C 34.171875 34.867188 34.3125 34.535156 34.597656 34.285156 C 34.882812 34.035156 35.242188 33.910156 35.675781 33.910156 C 35.972656 33.910156 36.3125 33.984375 36.695312 34.136719 L 36.488281 34.675781 C 36.1875 34.558594 35.925781 34.5 35.695312 34.5 C 35.425781 34.5 35.207031 34.570312 35.035156 34.714844 C 34.867188 34.855469 34.78125 35.050781 34.78125 35.296875 C 34.78125 35.542969 34.855469 35.738281 35.003906 35.859375 C 35.152344 35.976562 35.382812 36.039062 35.691406 36.039062 Z M 36.78125 36.039062 " fill-opacity="1" fill-rule="nonzero"/><g fill="#4e4d4d" fill-opacity="1"><g transform="translate(4.534021, 36.63262)"><g><path d="M 2.0625 -1.296875 L 2.0625 -0.203125 L 2.578125 -0.125 L 2.578125 0 L 1.0625 0 L 1.0625 -0.125 L 1.578125 -0.203125 L 1.578125 -1.28125 L 0.421875 -3.109375 L 0.0625 -3.171875 L 0.0625 -3.296875 L 1.453125 -3.296875 L 1.453125 -3.171875 L 1 -3.109375 L 1.953125 -1.578125 L 2.859375 -3.109375 L 2.4375 -3.171875 L 2.4375 -3.296875 L 3.5 -3.296875 L 3.5 -3.171875 L 3.140625 -3.109375 Z M 2.0625 -1.296875 "/></g></g></g><g fill="#4e4d4d" fill-opacity="1"><g transform="translate(8.172206, 36.63262)"><g><path d="M 0.140625 -0.125 L 0.5625 -0.203125 L 0.5625 -3.109375 L 0.140625 -3.171875 L 0.140625 -3.296875 L 2.609375 -3.296875 L 2.609375 -2.515625 L 2.453125 -2.515625 L 2.375 -3.046875 C 2.1875 -3.066406 1.921875 -3.078125 1.578125 -3.078125 L 1.046875 -3.078125 L 1.046875 -1.796875 L 1.9375 -1.796875 L 2 -2.1875 L 2.171875 -2.1875 L 2.171875 -1.171875 L 2 -1.171875 L 1.9375 -1.5625 L 1.046875 -1.5625 L 1.046875 -0.21875 L 1.6875 -0.21875 C 2.113281 -0.21875 2.390625 -0.234375 2.515625 -0.265625 L 2.65625 -0.875 L 2.828125 -0.875 L 2.78125 0 L 0.140625 0 Z M 0.140625 -0.125 "/></g></g></g><g fill="#4e4d4d" fill-opacity="1"><g transform="translate(11.249535, 36.63262)"><g><path d="M 1.125 -0.125 L 1.125 0 L 0.046875 0 L 0.046875 -0.125 L 0.421875 -0.203125 L 1.546875 -3.328125 L 2.015625 -3.328125 L 3.171875 -0.203125 L 3.59375 -0.125 L 3.59375 0 L 2.203125 0 L 2.203125 -0.125 L 2.640625 -0.203125 L 2.3125 -1.15625 L 1.015625 -1.15625 L 0.6875 -0.203125 Z M 1.65625 -2.984375 L 1.09375 -1.375 L 2.25 -1.375 Z M 1.65625 -2.984375 "/></g></g></g><g fill="#4e4d4d" fill-opacity="1"><g transform="translate(14.88772, 36.63262)"><g><path d="M 1.046875 -1.453125 L 1.046875 -0.203125 L 1.546875 -0.125 L 1.546875 0 L 0.171875 0 L 0.171875 -0.125 L 0.5625 -0.203125 L 0.5625 -3.109375 L 0.140625 -3.171875 L 0.140625 -3.296875 L 1.5625 -3.296875 C 1.976562 -3.296875 2.285156 -3.226562 2.484375 -3.09375 C 2.679688 -2.957031 2.78125 -2.734375 2.78125 -2.421875 C 2.78125 -2.203125 2.71875 -2.007812 2.59375 -1.84375 C 2.476562 -1.6875 2.3125 -1.578125 2.09375 -1.515625 L 3 -0.203125 L 3.34375 -0.125 L 3.34375 0 L 2.5625 0 L 1.640625 -1.453125 Z M 2.28125 -2.390625 C 2.28125 -2.640625 2.21875 -2.816406 2.09375 -2.921875 C 1.976562 -3.023438 1.769531 -3.078125 1.46875 -3.078125 L 1.046875 -3.078125 L 1.046875 -1.671875 L 1.46875 -1.671875 C 1.769531 -1.671875 1.976562 -1.722656 2.09375 -1.828125 C 2.21875 -1.941406 2.28125 -2.128906 2.28125 -2.390625 Z M 2.28125 -2.390625 "/></g></g></g><g fill="#4e4d4d" fill-opacity="1"><g transform="translate(18.247936, 36.63262)"><g><path d="M 0.34375 -0.890625 L 0.5 -0.890625 L 0.59375 -0.4375 C 0.644531 -0.363281 0.742188 -0.296875 0.890625 -0.234375 C 1.046875 -0.179688 1.195312 -0.15625 1.34375 -0.15625 C 1.570312 -0.15625 1.75 -0.210938 1.875 -0.328125 C 2 -0.441406 2.0625 -0.601562 2.0625 -0.8125 C 2.0625 -0.925781 2.035156 -1.019531 1.984375 -1.09375 C 1.941406 -1.175781 1.878906 -1.242188 1.796875 -1.296875 C 1.710938 -1.347656 1.617188 -1.394531 1.515625 -1.4375 C 1.410156 -1.476562 1.304688 -1.515625 1.203125 -1.546875 C 1.097656 -1.585938 0.992188 -1.628906 0.890625 -1.671875 C 0.785156 -1.722656 0.691406 -1.78125 0.609375 -1.84375 C 0.523438 -1.914062 0.457031 -2.003906 0.40625 -2.109375 C 0.363281 -2.210938 0.34375 -2.34375 0.34375 -2.5 C 0.34375 -2.757812 0.4375 -2.960938 0.625 -3.109375 C 0.820312 -3.265625 1.097656 -3.34375 1.453125 -3.34375 C 1.710938 -3.34375 2 -3.304688 2.3125 -3.234375 L 2.3125 -2.546875 L 2.15625 -2.546875 L 2.0625 -2.953125 C 1.894531 -3.078125 1.691406 -3.140625 1.453125 -3.140625 C 1.234375 -3.140625 1.0625 -3.09375 0.9375 -3 C 0.8125 -2.90625 0.75 -2.78125 0.75 -2.625 C 0.75 -2.519531 0.773438 -2.429688 0.828125 -2.359375 C 0.878906 -2.285156 0.941406 -2.222656 1.015625 -2.171875 C 1.097656 -2.128906 1.191406 -2.085938 1.296875 -2.046875 C 1.398438 -2.015625 1.503906 -1.976562 1.609375 -1.9375 C 1.722656 -1.894531 1.832031 -1.847656 1.9375 -1.796875 C 2.039062 -1.753906 2.132812 -1.695312 2.21875 -1.625 C 2.300781 -1.550781 2.363281 -1.457031 2.40625 -1.34375 C 2.457031 -1.238281 2.484375 -1.109375 2.484375 -0.953125 C 2.484375 -0.628906 2.382812 -0.378906 2.1875 -0.203125 C 2 -0.0351562 1.71875 0.046875 1.34375 0.046875 C 1.164062 0.046875 0.988281 0.03125 0.8125 0 C 0.632812 -0.03125 0.476562 -0.0703125 0.34375 -0.125 Z M 0.34375 -0.890625 "/></g></g></g><path fill="#4e4d4d" d="M 60.132812 34.363281 C 60.3125 34.242188 60.550781 34.179688 60.84375 34.179688 C 61.164062 34.179688 61.511719 34.253906 61.886719 34.398438 L 61.90625 34.40625 L 62.121094 33.757812 L 62.105469 33.75 C 61.679688 33.582031 61.261719 33.496094 60.867188 33.496094 C 60.367188 33.496094 59.953125 33.625 59.632812 33.871094 C 59.3125 34.125 59.148438 34.449219 59.148438 34.839844 C 59.148438 35.332031 59.378906 35.707031 59.835938 35.953125 C 59.988281 36.035156 60.171875 36.105469 60.375 36.160156 C 60.578125 36.214844 60.746094 36.253906 60.875 36.28125 C 61 36.304688 61.105469 36.355469 61.195312 36.429688 C 61.285156 36.5 61.324219 36.597656 61.324219 36.722656 C 61.324219 37.078125 60.96875 37.261719 60.269531 37.261719 L 59.710938 37.261719 C 58.757812 37.261719 58.296875 36.882812 58.296875 36.101562 C 58.296875 35.894531 58.328125 35.667969 58.386719 35.433594 L 58.390625 35.40625 L 57.726562 35.40625 L 57.722656 35.421875 C 57.636719 35.71875 57.59375 36 57.59375 36.261719 C 57.59375 36.824219 57.792969 37.253906 58.1875 37.535156 C 58.582031 37.816406 59.09375 37.960938 59.710938 37.960938 L 60.269531 37.960938 C 60.832031 37.960938 61.273438 37.851562 61.578125 37.632812 C 61.890625 37.414062 62.046875 37.109375 62.046875 36.722656 C 62.046875 36.535156 62.011719 36.371094 61.945312 36.230469 C 61.878906 36.085938 61.78125 35.972656 61.652344 35.882812 C 61.527344 35.796875 61.40625 35.726562 61.292969 35.679688 C 61.183594 35.632812 61.046875 35.589844 60.882812 35.546875 C 60.46875 35.4375 60.191406 35.328125 60.058594 35.230469 C 59.929688 35.132812 59.867188 35.003906 59.867188 34.839844 C 59.867188 34.640625 59.957031 34.480469 60.132812 34.359375 Z M 60.132812 34.363281 " fill-opacity="1" fill-rule="nonzero"/><path fill="#4e4d4d" d="M 59.296875 38.410156 C 59.1875 38.410156 59.089844 38.449219 59.007812 38.527344 C 58.929688 38.605469 58.886719 38.703125 58.886719 38.816406 C 58.886719 38.929688 58.929688 39.03125 59.007812 39.109375 C 59.089844 39.1875 59.1875 39.226562 59.296875 39.226562 C 59.40625 39.226562 59.503906 39.1875 59.582031 39.109375 C 59.664062 39.027344 59.703125 38.929688 59.703125 38.816406 C 59.703125 38.703125 59.664062 38.605469 59.582031 38.527344 C 59.503906 38.449219 59.40625 38.410156 59.296875 38.410156 Z M 59.296875 38.410156 " fill-opacity="1" fill-rule="nonzero"/><path fill="#4e4d4d" d="M 60.308594 38.410156 C 60.199219 38.410156 60.105469 38.449219 60.023438 38.527344 C 59.945312 38.605469 59.902344 38.703125 59.902344 38.816406 C 59.902344 38.929688 59.945312 39.03125 60.023438 39.109375 C 60.105469 39.1875 60.199219 39.226562 60.308594 39.226562 C 60.421875 39.226562 60.515625 39.1875 60.597656 39.109375 C 60.675781 39.03125 60.71875 38.929688 60.71875 38.816406 C 60.71875 38.703125 60.675781 38.605469 60.597656 38.527344 C 60.515625 38.449219 60.421875 38.410156 60.308594 38.410156 Z M 60.308594 38.410156 " fill-opacity="1" fill-rule="nonzero"/><path fill="#4e4d4d" d="M 65.097656 33.933594 C 64.714844 33.640625 64.179688 33.492188 63.515625 33.492188 L 63.15625 33.492188 L 63.15625 34.214844 L 63.503906 34.214844 C 64.007812 34.214844 64.378906 34.292969 64.613281 34.449219 C 64.84375 34.605469 64.957031 34.84375 64.957031 35.15625 C 64.957031 35.414062 64.898438 35.597656 64.773438 35.703125 C 64.652344 35.808594 64.4375 35.863281 64.140625 35.863281 L 62.839844 35.863281 L 62.839844 36.566406 L 64.144531 36.566406 C 64.640625 36.566406 65.023438 36.445312 65.285156 36.203125 C 65.546875 35.960938 65.679688 35.601562 65.679688 35.140625 C 65.679688 34.632812 65.484375 34.226562 65.097656 33.933594 Z M 65.097656 33.933594 " fill-opacity="1" fill-rule="nonzero"/><path fill="#4e4d4d" d="M 81.003906 32.394531 L 81.003906 35.078125 C 81.003906 35.347656 80.941406 35.550781 80.820312 35.675781 C 80.695312 35.800781 80.5 35.863281 80.234375 35.863281 C 79.949219 35.863281 79.734375 35.800781 79.609375 35.679688 C 79.480469 35.554688 79.417969 35.351562 79.417969 35.078125 L 79.417969 33.492188 L 78.695312 33.492188 L 78.695312 35.078125 C 78.695312 35.605469 78.519531 35.863281 78.152344 35.863281 C 77.753906 35.863281 77.558594 35.605469 77.558594 35.078125 L 77.558594 33.675781 L 76.835938 33.675781 L 76.835938 35.078125 C 76.835938 35.605469 76.660156 35.863281 76.292969 35.863281 C 75.894531 35.863281 75.699219 35.605469 75.699219 35.078125 L 75.699219 33.675781 L 74.980469 33.675781 L 74.980469 35.078125 C 74.980469 35.347656 74.917969 35.546875 74.792969 35.671875 C 74.671875 35.800781 74.476562 35.863281 74.210938 35.863281 L 73.15625 35.863281 L 73.796875 35.28125 L 73.804688 35.277344 L 73.808594 35.078125 C 73.808594 34.625 73.652344 34.246094 73.339844 33.945312 C 73.03125 33.644531 72.640625 33.492188 72.183594 33.492188 C 71.726562 33.492188 71.34375 33.644531 71.035156 33.945312 C 70.722656 34.246094 70.566406 34.625 70.566406 35.078125 L 70.566406 35.277344 L 71.214844 35.863281 L 69.320312 35.863281 L 69.320312 35.195312 C 69.320312 34.679688 69.183594 34.261719 68.910156 33.957031 C 68.640625 33.648438 68.289062 33.488281 67.867188 33.488281 C 67.417969 33.488281 67.054688 33.648438 66.789062 33.957031 C 66.523438 34.269531 66.390625 34.636719 66.390625 35.054688 C 66.390625 35.46875 66.519531 35.820312 66.777344 36.117188 C 67.035156 36.414062 67.398438 36.566406 67.859375 36.566406 L 68.558594 36.566406 C 68.433594 37.007812 68.078125 37.230469 67.507812 37.230469 C 67.347656 37.230469 67.179688 37.214844 67.011719 37.191406 L 66.988281 37.1875 L 66.988281 37.878906 L 67.003906 37.882812 C 67.242188 37.929688 67.460938 37.949219 67.660156 37.949219 C 68.117188 37.949219 68.492188 37.828125 68.773438 37.589844 C 69.054688 37.355469 69.226562 37.011719 69.292969 36.566406 L 71.609375 36.566406 C 71.71875 36.566406 71.816406 36.542969 71.90625 36.492188 C 71.992188 36.445312 72.050781 36.402344 72.082031 36.363281 C 72.109375 36.332031 72.144531 36.285156 72.183594 36.230469 C 72.226562 36.289062 72.261719 36.332031 72.289062 36.363281 C 72.320312 36.402344 72.378906 36.445312 72.464844 36.492188 C 72.550781 36.542969 72.648438 36.566406 72.757812 36.566406 L 74.210938 36.566406 C 74.726562 36.566406 75.125 36.398438 75.390625 36.074219 C 75.574219 36.398438 75.878906 36.566406 76.292969 36.566406 C 76.707031 36.566406 77.035156 36.410156 77.261719 36.101562 C 77.449219 36.410156 77.75 36.566406 78.152344 36.566406 C 78.554688 36.566406 78.90625 36.402344 79.132812 36.085938 C 79.347656 36.402344 79.71875 36.566406 80.238281 36.566406 C 80.699219 36.566406 81.066406 36.429688 81.328125 36.167969 C 81.59375 35.90625 81.726562 35.535156 81.726562 35.074219 L 81.726562 32.390625 L 81.003906 32.390625 Z M 68.609375 35.863281 L 67.867188 35.863281 C 67.625 35.863281 67.433594 35.78125 67.292969 35.617188 C 67.148438 35.453125 67.078125 35.257812 67.078125 35.039062 C 67.078125 34.820312 67.148438 34.625 67.289062 34.460938 C 67.429688 34.296875 67.621094 34.214844 67.855469 34.214844 C 68.070312 34.214844 68.25 34.296875 68.394531 34.464844 C 68.535156 34.628906 68.609375 34.871094 68.609375 35.179688 Z M 72.183594 35.890625 L 71.28125 35.058594 C 71.296875 34.808594 71.390625 34.605469 71.554688 34.449219 C 71.722656 34.292969 71.933594 34.214844 72.183594 34.214844 C 72.433594 34.214844 72.644531 34.292969 72.8125 34.449219 C 72.976562 34.605469 73.070312 34.808594 73.085938 35.058594 Z M 72.183594 35.890625 " fill-opacity="1" fill-rule="nonzero"/><path fill="#4e4d4d" d="M 82.453125 32.394531 L 83.171875 32.394531 L 83.171875 36.566406 L 82.453125 36.566406 Z M 82.453125 32.394531 " fill-opacity="1" fill-rule="nonzero"/><path fill="#4e4d4d" d="M 87.15625 33 C 87.269531 33 87.367188 32.960938 87.445312 32.878906 C 87.523438 32.800781 87.5625 32.703125 87.5625 32.59375 C 87.5625 32.480469 87.523438 32.386719 87.445312 32.304688 C 87.367188 32.226562 87.269531 32.183594 87.15625 32.183594 C 87.042969 32.183594 86.945312 32.226562 86.867188 32.304688 C 86.789062 32.386719 86.75 32.484375 86.75 32.59375 C 86.75 32.703125 86.789062 32.800781 86.867188 32.878906 C 86.945312 32.960938 87.042969 33 87.15625 33 Z M 87.15625 33 " fill-opacity="1" fill-rule="nonzero"/><path fill="#4e4d4d" d="M 86.144531 33 C 86.257812 33 86.355469 32.960938 86.433594 32.878906 C 86.511719 32.800781 86.550781 32.703125 86.550781 32.59375 C 86.550781 32.484375 86.511719 32.386719 86.433594 32.304688 C 86.355469 32.226562 86.257812 32.183594 86.144531 32.183594 C 86.027344 32.183594 85.929688 32.226562 85.851562 32.304688 C 85.773438 32.386719 85.734375 32.484375 85.734375 32.59375 C 85.734375 32.703125 85.773438 32.800781 85.851562 32.878906 C 85.933594 32.960938 86.03125 33 86.144531 33 Z M 86.144531 33 " fill-opacity="1" fill-rule="nonzero"/><path fill="#4e4d4d" d="M 89.347656 37.03125 C 89.238281 37.03125 89.140625 37.070312 89.0625 37.152344 C 88.980469 37.230469 88.9375 37.328125 88.9375 37.4375 C 88.9375 37.546875 88.980469 37.644531 89.0625 37.722656 C 89.140625 37.804688 89.238281 37.84375 89.347656 37.84375 C 89.457031 37.84375 89.554688 37.804688 89.632812 37.722656 C 89.714844 37.644531 89.753906 37.546875 89.753906 37.4375 C 89.753906 37.328125 89.714844 37.230469 89.632812 37.152344 C 89.554688 37.070312 89.457031 37.03125 89.347656 37.03125 Z M 89.347656 37.03125 " fill-opacity="1" fill-rule="nonzero"/><path fill="#4e4d4d" d="M 90.359375 37.03125 C 90.25 37.03125 90.152344 37.070312 90.074219 37.152344 C 89.992188 37.230469 89.953125 37.328125 89.953125 37.4375 C 89.953125 37.546875 89.992188 37.644531 90.074219 37.722656 C 90.152344 37.804688 90.25 37.84375 90.359375 37.84375 C 90.46875 37.84375 90.566406 37.804688 90.648438 37.722656 C 90.726562 37.644531 90.769531 37.546875 90.769531 37.4375 C 90.769531 37.328125 90.726562 37.230469 90.648438 37.152344 C 90.566406 37.070312 90.46875 37.03125 90.359375 37.03125 Z M 90.359375 37.03125 " fill-opacity="1" fill-rule="nonzero"/><path fill="#4e4d4d" d="M 92.859375 35.863281 C 92.523438 35.863281 92.269531 35.796875 92.105469 35.667969 C 91.949219 35.539062 91.867188 35.332031 91.867188 35.054688 C 91.867188 34.777344 91.960938 34.574219 92.144531 34.417969 C 92.328125 34.261719 92.570312 34.183594 92.867188 34.183594 C 93.117188 34.183594 93.414062 34.25 93.742188 34.378906 L 93.761719 34.386719 L 94.007812 33.75 L 93.988281 33.742188 C 93.5625 33.570312 93.179688 33.484375 92.84375 33.484375 C 92.355469 33.484375 91.949219 33.628906 91.628906 33.910156 C 91.308594 34.191406 91.144531 34.570312 91.144531 35.03125 C 91.144531 35.40625 91.265625 35.683594 91.503906 35.863281 L 91.035156 35.863281 C 90.746094 35.863281 90.535156 35.800781 90.40625 35.675781 C 90.28125 35.554688 90.21875 35.351562 90.21875 35.078125 L 90.21875 33.878906 L 89.496094 33.878906 L 89.496094 35.078125 C 89.496094 35.347656 89.433594 35.546875 89.308594 35.671875 C 89.1875 35.796875 88.992188 35.859375 88.726562 35.859375 C 88.464844 35.859375 88.269531 35.796875 88.148438 35.671875 C 88.027344 35.546875 87.964844 35.347656 87.964844 35.078125 L 87.964844 33.238281 L 87.246094 33.238281 L 87.246094 33.527344 C 87.101562 33.511719 86.976562 33.503906 86.871094 33.503906 C 86.335938 33.503906 85.890625 33.640625 85.546875 33.917969 C 85.199219 34.195312 85.023438 34.59375 85.023438 35.101562 C 85.023438 35.46875 85.144531 35.789062 85.382812 36.054688 C 85.617188 36.320312 85.933594 36.453125 86.3125 36.453125 C 86.828125 36.453125 87.183594 36.222656 87.371094 35.773438 C 87.472656 36.015625 87.640625 36.210938 87.863281 36.347656 C 88.101562 36.496094 88.390625 36.570312 88.726562 36.570312 C 89.253906 36.570312 89.652344 36.398438 89.914062 36.066406 C 90.125 36.398438 90.503906 36.570312 91.035156 36.570312 L 94.09375 36.570312 L 94.09375 35.863281 Z M 87.242188 34.734375 C 87.242188 35.042969 87.167969 35.296875 87.019531 35.480469 C 86.871094 35.667969 86.671875 35.761719 86.425781 35.761719 C 86.210938 35.761719 86.042969 35.695312 85.921875 35.566406 C 85.796875 35.433594 85.734375 35.273438 85.734375 35.085938 C 85.734375 34.804688 85.84375 34.578125 86.054688 34.421875 C 86.269531 34.261719 86.550781 34.179688 86.886719 34.179688 C 87 34.179688 87.121094 34.1875 87.242188 34.210938 Z M 87.242188 34.734375 " fill-opacity="1" fill-rule="nonzero"/><path fill="#4e4d4d" d="M 98.0625 33.476562 C 98.171875 33.476562 98.269531 33.433594 98.347656 33.355469 C 98.429688 33.273438 98.46875 33.175781 98.46875 33.066406 C 98.46875 32.957031 98.429688 32.859375 98.347656 32.78125 C 98.269531 32.699219 98.171875 32.660156 98.0625 32.660156 C 97.953125 32.660156 97.855469 32.699219 97.773438 32.78125 C 97.695312 32.859375 97.652344 32.957031 97.652344 33.066406 C 97.652344 33.175781 97.695312 33.273438 97.773438 33.355469 C 97.855469 33.433594 97.953125 33.476562 98.0625 33.476562 Z M 98.0625 33.476562 " fill-opacity="1" fill-rule="nonzero"/><path fill="#4e4d4d" d="M 105.417969 32.394531 L 105.417969 35.078125 C 105.417969 35.347656 105.355469 35.550781 105.234375 35.675781 C 105.109375 35.800781 104.914062 35.863281 104.648438 35.863281 C 104.386719 35.863281 104.183594 35.808594 104.054688 35.703125 C 103.929688 35.597656 103.855469 35.429688 103.835938 35.199219 L 103.835938 35.132812 C 103.835938 34.667969 103.65625 34.273438 103.300781 33.964844 C 102.945312 33.652344 102.507812 33.496094 102.003906 33.496094 C 101.601562 33.496094 101.25 33.585938 100.957031 33.761719 C 100.6875 33.921875 100.472656 34.152344 100.316406 34.441406 L 100.316406 33.492188 L 99.601562 33.492188 L 99.601562 35.863281 L 99.246094 35.863281 C 98.957031 35.863281 98.742188 35.800781 98.617188 35.675781 C 98.492188 35.554688 98.425781 35.351562 98.425781 35.078125 L 98.425781 33.878906 L 97.703125 33.878906 L 97.703125 35.078125 C 97.703125 35.347656 97.640625 35.546875 97.519531 35.671875 C 97.394531 35.796875 97.199219 35.859375 96.9375 35.859375 L 96.308594 35.859375 C 96.046875 35.859375 95.851562 35.796875 95.730469 35.671875 C 95.605469 35.542969 95.546875 35.34375 95.546875 35.078125 L 95.546875 32.390625 L 94.824219 32.390625 L 94.824219 35.078125 C 94.824219 35.535156 94.957031 35.90625 95.21875 36.167969 C 95.480469 36.433594 95.84375 36.566406 96.304688 36.566406 L 96.933594 36.566406 C 97.460938 36.566406 97.859375 36.398438 98.121094 36.0625 C 98.332031 36.398438 98.710938 36.566406 99.242188 36.566406 L 102.347656 36.566406 C 102.867188 36.566406 103.269531 36.402344 103.539062 36.074219 C 103.746094 36.402344 104.121094 36.566406 104.648438 36.566406 C 105.109375 36.566406 105.476562 36.433594 105.742188 36.167969 C 106.003906 35.90625 106.140625 35.539062 106.140625 35.078125 L 106.140625 32.390625 L 105.417969 32.390625 Z M 102.929688 35.683594 C 102.808594 35.804688 102.609375 35.863281 102.347656 35.863281 L 100.3125 35.863281 L 100.3125 35.742188 C 100.328125 35.320312 100.5 34.957031 100.832031 34.660156 C 101.164062 34.367188 101.558594 34.21875 102.003906 34.21875 C 102.328125 34.21875 102.597656 34.304688 102.804688 34.472656 C 103.011719 34.640625 103.117188 34.863281 103.117188 35.136719 C 103.117188 35.378906 103.054688 35.566406 102.929688 35.683594 Z M 102.929688 35.683594 " fill-opacity="1" fill-rule="nonzero"/><path fill="#4e4d4d" d="M 106.867188 32.394531 L 107.585938 32.394531 L 107.585938 36.566406 L 106.867188 36.566406 Z M 106.867188 32.394531 " fill-opacity="1" fill-rule="nonzero"/><path fill="#4e4d4d" d="M 111.570312 33 C 111.683594 33 111.78125 32.960938 111.859375 32.878906 C 111.9375 32.800781 111.976562 32.703125 111.976562 32.59375 C 111.976562 32.480469 111.9375 32.386719 111.859375 32.304688 C 111.78125 32.226562 111.683594 32.183594 111.570312 32.183594 C 111.457031 32.183594 111.359375 32.226562 111.28125 32.304688 C 111.203125 32.386719 111.164062 32.484375 111.164062 32.59375 C 111.164062 32.703125 111.203125 32.800781 111.28125 32.878906 C 111.359375 32.960938 111.457031 33 111.570312 33 Z M 111.570312 33 " fill-opacity="1" fill-rule="nonzero"/><path fill="#4e4d4d" d="M 110.558594 33 C 110.671875 33 110.769531 32.960938 110.847656 32.878906 C 110.925781 32.800781 110.964844 32.703125 110.964844 32.59375 C 110.964844 32.484375 110.925781 32.386719 110.847656 32.304688 C 110.769531 32.226562 110.671875 32.183594 110.558594 32.183594 C 110.441406 32.183594 110.34375 32.226562 110.265625 32.304688 C 110.1875 32.386719 110.148438 32.484375 110.148438 32.59375 C 110.148438 32.703125 110.1875 32.800781 110.265625 32.878906 C 110.34375 32.960938 110.445312 33 110.558594 33 Z M 110.558594 33 " fill-opacity="1" fill-rule="nonzero"/><path fill="#4e4d4d" d="M 113.761719 37.03125 C 113.652344 37.03125 113.554688 37.070312 113.472656 37.152344 C 113.394531 37.230469 113.351562 37.328125 113.351562 37.4375 C 113.351562 37.546875 113.394531 37.644531 113.472656 37.722656 C 113.554688 37.804688 113.652344 37.84375 113.761719 37.84375 C 113.871094 37.84375 113.96875 37.804688 114.046875 37.722656 C 114.128906 37.644531 114.167969 37.546875 114.167969 37.4375 C 114.167969 37.328125 114.128906 37.230469 114.046875 37.152344 C 113.96875 37.070312 113.871094 37.03125 113.761719 37.03125 Z M 113.761719 37.03125 " fill-opacity="1" fill-rule="nonzero"/><path fill="#4e4d4d" d="M 114.773438 37.03125 C 114.664062 37.03125 114.566406 37.070312 114.488281 37.152344 C 114.40625 37.230469 114.367188 37.328125 114.367188 37.4375 C 114.367188 37.546875 114.40625 37.644531 114.488281 37.722656 C 114.566406 37.804688 114.664062 37.84375 114.773438 37.84375 C 114.882812 37.84375 114.980469 37.804688 115.0625 37.722656 C 115.140625 37.644531 115.183594 37.546875 115.183594 37.4375 C 115.183594 37.328125 115.140625 37.230469 115.0625 37.152344 C 114.980469 37.070312 114.882812 37.03125 114.773438 37.03125 Z M 114.773438 37.03125 " fill-opacity="1" fill-rule="nonzero"/><path fill="#4e4d4d" d="M 121.398438 33.476562 C 121.507812 33.476562 121.605469 33.433594 121.683594 33.355469 C 121.765625 33.273438 121.804688 33.175781 121.804688 33.066406 C 121.804688 32.957031 121.765625 32.859375 121.683594 32.78125 C 121.605469 32.699219 121.507812 32.660156 121.398438 32.660156 C 121.289062 32.660156 121.191406 32.699219 121.109375 32.78125 C 121.03125 32.859375 120.988281 32.957031 120.988281 33.066406 C 120.988281 33.175781 121.03125 33.273438 121.109375 33.355469 C 121.191406 33.433594 121.289062 33.476562 121.398438 33.476562 Z M 121.398438 33.476562 " fill-opacity="1" fill-rule="nonzero"/><path fill="#4e4d4d" d="M 124.230469 33.46875 C 124.34375 33.46875 124.441406 33.429688 124.519531 33.351562 C 124.597656 33.273438 124.636719 33.175781 124.636719 33.0625 C 124.636719 32.945312 124.597656 32.847656 124.519531 32.769531 C 124.441406 32.691406 124.34375 32.652344 124.230469 32.652344 C 124.117188 32.652344 124.019531 32.691406 123.941406 32.769531 C 123.859375 32.847656 123.820312 32.949219 123.820312 33.0625 C 123.820312 33.175781 123.863281 33.273438 123.941406 33.351562 C 124.019531 33.429688 124.117188 33.46875 124.230469 33.46875 Z M 124.230469 33.46875 " fill-opacity="1" fill-rule="nonzero"/><path fill="#4e4d4d" d="M 123.214844 33.46875 C 123.328125 33.46875 123.425781 33.429688 123.503906 33.351562 C 123.582031 33.273438 123.625 33.175781 123.625 33.0625 C 123.625 32.945312 123.582031 32.847656 123.503906 32.769531 C 123.425781 32.691406 123.328125 32.652344 123.214844 32.652344 C 123.101562 32.652344 123.003906 32.691406 122.925781 32.769531 C 122.847656 32.847656 122.808594 32.949219 122.808594 33.0625 C 122.808594 33.175781 122.847656 33.273438 122.925781 33.351562 C 123.003906 33.429688 123.101562 33.46875 123.214844 33.46875 Z M 123.214844 33.46875 " fill-opacity="1" fill-rule="nonzero"/><path fill="#4e4d4d" d="M 125.65625 32.394531 L 125.65625 35.078125 C 125.65625 35.347656 125.59375 35.550781 125.472656 35.675781 C 125.347656 35.800781 125.152344 35.863281 124.890625 35.863281 C 124.597656 35.863281 124.386719 35.800781 124.261719 35.679688 C 124.132812 35.554688 124.070312 35.351562 124.070312 35.078125 L 124.070312 33.878906 L 123.347656 33.878906 L 123.347656 35.078125 C 123.347656 35.347656 123.285156 35.546875 123.164062 35.671875 C 123.039062 35.800781 122.84375 35.863281 122.582031 35.863281 C 122.289062 35.863281 122.078125 35.800781 121.953125 35.675781 C 121.824219 35.554688 121.761719 35.351562 121.761719 35.078125 L 121.761719 33.878906 L 121.039062 33.878906 L 121.039062 35.078125 C 121.039062 35.347656 120.976562 35.546875 120.855469 35.671875 C 120.730469 35.796875 120.535156 35.859375 120.273438 35.859375 C 120.007812 35.859375 119.792969 35.804688 119.667969 35.691406 C 119.539062 35.582031 119.46875 35.40625 119.453125 35.160156 C 119.457031 35.132812 119.457031 35.089844 119.457031 35.035156 C 119.457031 34.601562 119.316406 34.230469 119.039062 33.933594 C 118.761719 33.640625 118.410156 33.488281 117.996094 33.488281 C 117.65625 33.488281 117.363281 33.605469 117.125 33.832031 C 116.894531 34.054688 116.722656 34.378906 116.621094 34.796875 C 116.597656 34.898438 116.574219 35.003906 116.554688 35.113281 C 116.53125 35.222656 116.511719 35.3125 116.492188 35.375 C 116.476562 35.4375 116.453125 35.507812 116.417969 35.585938 C 116.34375 35.769531 116.1875 35.859375 115.949219 35.859375 L 115.453125 35.859375 C 115.160156 35.859375 114.949219 35.800781 114.824219 35.675781 C 114.699219 35.550781 114.632812 35.351562 114.632812 35.074219 L 114.632812 33.878906 L 113.914062 33.878906 L 113.914062 35.074219 C 113.914062 35.347656 113.851562 35.546875 113.726562 35.671875 C 113.601562 35.796875 113.40625 35.859375 113.144531 35.859375 C 112.882812 35.859375 112.6875 35.796875 112.566406 35.671875 C 112.441406 35.546875 112.378906 35.34375 112.378906 35.074219 L 112.378906 33.234375 L 111.660156 33.234375 L 111.660156 33.527344 C 111.519531 33.511719 111.390625 33.5 111.285156 33.5 C 110.75 33.5 110.304688 33.640625 109.960938 33.917969 C 109.617188 34.195312 109.441406 34.589844 109.441406 35.097656 C 109.441406 35.46875 109.5625 35.789062 109.800781 36.050781 C 110.035156 36.320312 110.351562 36.453125 110.730469 36.453125 C 111.246094 36.453125 111.601562 36.222656 111.789062 35.773438 C 111.890625 36.015625 112.058594 36.210938 112.28125 36.347656 C 112.519531 36.492188 112.808594 36.566406 113.144531 36.566406 C 113.671875 36.566406 114.070312 36.398438 114.332031 36.0625 C 114.542969 36.398438 114.921875 36.566406 115.453125 36.566406 L 115.949219 36.566406 C 116.378906 36.566406 116.707031 36.414062 116.925781 36.117188 C 117.25 36.421875 117.625 36.578125 118.03125 36.578125 C 118.25 36.578125 118.460938 36.53125 118.660156 36.433594 C 118.847656 36.339844 119.011719 36.210938 119.140625 36.042969 C 119.347656 36.390625 119.730469 36.566406 120.273438 36.566406 C 120.816406 36.566406 121.195312 36.398438 121.460938 36.0625 C 121.671875 36.398438 122.050781 36.566406 122.582031 36.566406 C 123.113281 36.566406 123.503906 36.398438 123.765625 36.0625 C 123.980469 36.398438 124.355469 36.566406 124.890625 36.566406 C 125.351562 36.566406 125.71875 36.433594 125.980469 36.171875 C 126.246094 35.90625 126.378906 35.539062 126.378906 35.078125 L 126.378906 32.390625 L 125.65625 32.390625 Z M 111.660156 34.734375 C 111.660156 35.042969 111.582031 35.296875 111.433594 35.484375 C 111.289062 35.667969 111.085938 35.761719 110.839844 35.761719 C 110.628906 35.761719 110.457031 35.699219 110.335938 35.566406 C 110.210938 35.433594 110.148438 35.273438 110.148438 35.089844 C 110.148438 34.804688 110.257812 34.582031 110.472656 34.421875 C 110.6875 34.261719 110.964844 34.179688 111.300781 34.179688 C 111.417969 34.179688 111.539062 34.191406 111.660156 34.210938 Z M 118.527344 35.648438 C 118.390625 35.800781 118.21875 35.875 118.011719 35.875 C 117.714844 35.875 117.441406 35.730469 117.199219 35.449219 C 117.238281 35.253906 117.277344 35.074219 117.324219 34.914062 C 117.390625 34.671875 117.476562 34.496094 117.585938 34.382812 C 117.691406 34.269531 117.832031 34.214844 117.996094 34.214844 C 118.210938 34.214844 118.390625 34.289062 118.527344 34.445312 C 118.664062 34.597656 118.734375 34.796875 118.734375 35.039062 C 118.734375 35.296875 118.664062 35.503906 118.527344 35.652344 Z M 118.527344 35.648438 " fill-opacity="1" fill-rule="nonzero"/><path fill="#4e4d4d" d="M 127.101562 32.394531 L 127.824219 32.394531 L 127.824219 36.566406 L 127.101562 36.566406 Z M 127.101562 32.394531 " fill-opacity="1" fill-rule="nonzero"/><path fill="#4e4d4d" d="M 132.117188 33.1875 C 132.226562 33.1875 132.324219 33.148438 132.40625 33.070312 C 132.484375 32.988281 132.527344 32.890625 132.527344 32.777344 C 132.527344 32.664062 132.484375 32.566406 132.40625 32.488281 C 132.324219 32.410156 132.226562 32.371094 132.117188 32.371094 C 132.007812 32.371094 131.910156 32.410156 131.832031 32.488281 C 131.75 32.566406 131.710938 32.664062 131.710938 32.777344 C 131.710938 32.890625 131.75 32.988281 131.832031 33.070312 C 131.910156 33.148438 132.007812 33.1875 132.117188 33.1875 Z M 132.117188 33.1875 " fill-opacity="1" fill-rule="nonzero"/><path fill="#4e4d4d" d="M 133.679688 33.957031 C 133.40625 33.648438 133.058594 33.492188 132.636719 33.492188 C 132.183594 33.492188 131.820312 33.652344 131.554688 33.972656 C 131.292969 34.289062 131.15625 34.664062 131.15625 35.089844 C 131.15625 35.488281 131.28125 35.835938 131.519531 36.125 C 131.761719 36.417969 132.09375 36.570312 132.511719 36.570312 C 132.878906 36.570312 133.167969 36.425781 133.375 36.144531 L 133.375 36.351562 C 133.375 36.769531 133.261719 37.074219 133.039062 37.253906 C 132.8125 37.429688 132.433594 37.519531 131.910156 37.519531 C 130.90625 37.519531 130.398438 37.097656 130.398438 36.269531 C 130.398438 36.089844 130.417969 35.902344 130.453125 35.714844 L 130.457031 35.691406 L 129.792969 35.691406 L 129.789062 35.703125 C 129.726562 35.972656 129.695312 36.214844 129.695312 36.429688 C 129.695312 37.027344 129.902344 37.484375 130.316406 37.785156 C 130.726562 38.089844 131.261719 38.242188 131.910156 38.242188 C 132.613281 38.242188 133.15625 38.082031 133.527344 37.761719 C 133.898438 37.445312 134.085938 36.972656 134.085938 36.351562 L 134.085938 35.195312 C 134.085938 34.683594 133.945312 34.265625 133.675781 33.957031 Z M 133.109375 35.660156 C 132.960938 35.796875 132.804688 35.863281 132.636719 35.863281 C 132.402344 35.863281 132.210938 35.78125 132.074219 35.617188 C 131.933594 35.453125 131.863281 35.257812 131.863281 35.039062 C 131.863281 34.816406 131.933594 34.625 132.070312 34.457031 C 132.207031 34.296875 132.394531 34.210938 132.625 34.210938 C 132.835938 34.210938 133.015625 34.292969 133.15625 34.457031 C 133.300781 34.621094 133.375 34.855469 133.378906 35.152344 C 133.34375 35.355469 133.253906 35.527344 133.109375 35.660156 Z M 133.109375 35.660156 " fill-opacity="1" fill-rule="nonzero"/><path fill="#4e4d4d" d="M 133.132812 33.1875 C 133.242188 33.1875 133.339844 33.148438 133.417969 33.070312 C 133.5 32.988281 133.539062 32.890625 133.539062 32.777344 C 133.539062 32.664062 133.5 32.566406 133.417969 32.488281 C 133.339844 32.410156 133.242188 32.371094 133.132812 32.371094 C 133.023438 32.371094 132.925781 32.410156 132.847656 32.488281 C 132.765625 32.566406 132.726562 32.664062 132.726562 32.777344 C 132.726562 32.890625 132.765625 32.988281 132.847656 33.070312 C 132.925781 33.148438 133.023438 33.1875 133.132812 33.1875 Z M 133.132812 33.1875 " fill-opacity="1" fill-rule="nonzero"/><path fill="#4e4d4d" d="M 137.34375 33.957031 C 137.074219 33.648438 136.722656 33.492188 136.300781 33.492188 C 135.839844 33.492188 135.472656 33.652344 135.207031 33.972656 C 134.945312 34.289062 134.8125 34.664062 134.8125 35.089844 C 134.8125 35.511719 134.933594 35.839844 135.171875 36.132812 C 135.410156 36.421875 135.75 36.570312 136.175781 36.570312 C 136.542969 36.570312 136.832031 36.425781 137.042969 36.144531 L 137.042969 36.167969 C 137.042969 36.53125 136.949219 36.804688 136.773438 36.976562 C 136.589844 37.148438 136.3125 37.234375 135.941406 37.234375 C 135.777344 37.234375 135.609375 37.222656 135.441406 37.195312 L 135.417969 37.191406 L 135.414062 37.867188 L 135.414062 37.886719 L 135.429688 37.886719 C 135.664062 37.933594 135.886719 37.957031 136.09375 37.957031 C 136.613281 37.957031 137.027344 37.800781 137.316406 37.492188 C 137.605469 37.1875 137.75 36.742188 137.75 36.171875 L 137.75 35.199219 C 137.75 34.683594 137.613281 34.269531 137.34375 33.960938 Z M 136.789062 35.636719 C 136.640625 35.785156 136.476562 35.863281 136.304688 35.863281 C 136.054688 35.863281 135.859375 35.78125 135.722656 35.621094 C 135.585938 35.457031 135.515625 35.261719 135.515625 35.039062 C 135.515625 34.816406 135.585938 34.621094 135.722656 34.457031 C 135.855469 34.292969 136.046875 34.210938 136.292969 34.210938 C 136.492188 34.210938 136.667969 34.289062 136.808594 34.4375 C 136.949219 34.585938 137.027344 34.804688 137.042969 35.082031 C 137.023438 35.296875 136.941406 35.484375 136.789062 35.632812 Z M 136.789062 35.636719 " fill-opacity="1" fill-rule="nonzero"/><path fill="#4e4d4d" d="M 143.90625 33.476562 C 144.015625 33.476562 144.113281 33.433594 144.195312 33.355469 C 144.273438 33.273438 144.316406 33.175781 144.316406 33.066406 C 144.316406 32.957031 144.273438 32.859375 144.195312 32.78125 C 144.113281 32.699219 144.015625 32.660156 143.90625 32.660156 C 143.796875 32.660156 143.699219 32.699219 143.621094 32.78125 C 143.539062 32.859375 143.5 32.957031 143.5 33.066406 C 143.5 33.175781 143.539062 33.273438 143.621094 33.355469 C 143.699219 33.433594 143.796875 33.476562 143.90625 33.476562 Z M 143.90625 33.476562 " fill-opacity="1" fill-rule="nonzero"/><path fill="#4e4d4d" d="M 149.144531 33.964844 C 148.789062 33.652344 148.355469 33.496094 147.847656 33.496094 C 147.445312 33.496094 147.09375 33.585938 146.800781 33.761719 C 146.53125 33.921875 146.316406 34.152344 146.160156 34.441406 L 146.160156 33.492188 L 145.445312 33.492188 L 145.445312 35.863281 L 145.089844 35.863281 C 144.796875 35.863281 144.585938 35.800781 144.460938 35.675781 C 144.335938 35.554688 144.269531 35.351562 144.269531 35.078125 L 144.269531 33.878906 L 143.546875 33.878906 L 143.546875 35.078125 C 143.546875 35.347656 143.488281 35.546875 143.363281 35.671875 C 143.242188 35.796875 143.042969 35.859375 142.78125 35.859375 L 142.128906 35.859375 C 141.863281 35.859375 141.664062 35.808594 141.535156 35.703125 C 141.410156 35.601562 141.335938 35.433594 141.316406 35.203125 L 141.316406 35.136719 C 141.316406 34.628906 141.121094 34.222656 140.734375 33.929688 C 140.351562 33.636719 139.816406 33.488281 139.152344 33.488281 L 138.792969 33.488281 L 138.792969 34.210938 L 139.140625 34.210938 C 139.644531 34.210938 140.015625 34.289062 140.25 34.445312 C 140.480469 34.601562 140.597656 34.839844 140.597656 35.152344 C 140.597656 35.410156 140.535156 35.59375 140.410156 35.699219 C 140.289062 35.804688 140.074219 35.859375 139.777344 35.859375 L 138.480469 35.859375 L 138.480469 36.5625 L 139.78125 36.5625 C 140.351562 36.5625 140.769531 36.402344 141.027344 36.085938 C 141.242188 36.402344 141.613281 36.5625 142.128906 36.5625 L 142.78125 36.5625 C 143.308594 36.5625 143.707031 36.394531 143.96875 36.058594 C 144.179688 36.394531 144.558594 36.5625 145.089844 36.5625 L 148.191406 36.5625 C 148.652344 36.5625 149.019531 36.433594 149.285156 36.175781 C 149.550781 35.917969 149.683594 35.566406 149.683594 35.128906 C 149.683594 34.664062 149.5 34.269531 149.144531 33.957031 Z M 148.773438 35.683594 C 148.652344 35.800781 148.453125 35.863281 148.191406 35.863281 L 146.15625 35.863281 L 146.15625 35.742188 C 146.171875 35.320312 146.347656 34.953125 146.675781 34.660156 C 147.007812 34.367188 147.402344 34.21875 147.847656 34.21875 C 148.171875 34.21875 148.441406 34.304688 148.648438 34.472656 C 148.855469 34.640625 148.960938 34.863281 148.960938 35.132812 C 148.960938 35.378906 148.898438 35.5625 148.773438 35.683594 Z M 148.773438 35.683594 " fill-opacity="1" fill-rule="nonzero"/><path fill="#4e4d4d" d="M 70.597656 16.503906 C 69.4375 15.535156 67.675781 14.96875 65.199219 14.773438 C 63.464844 14.648438 62.257812 14.34375 61.617188 13.867188 C 61.019531 13.421875 60.730469 12.785156 60.730469 11.921875 C 60.730469 10.667969 61.117188 9.832031 61.917969 9.367188 C 62.792969 8.855469 64.128906 8.597656 65.890625 8.597656 C 66.699219 8.597656 67.585938 8.617188 68.507812 8.804688 C 70.253906 9.15625 70.9375 9.527344 70.9375 9.527344 L 71.835938 6.710938 L 71.355469 6.566406 C 69.625 6.054688 67.777344 5.792969 65.863281 5.792969 C 60.371094 5.792969 57.589844 7.875 57.589844 11.976562 C 57.589844 13.886719 58.191406 15.292969 59.382812 16.160156 C 60.53125 16.992188 62.308594 17.484375 64.824219 17.660156 C 66.503906 17.78125 67.683594 18.136719 68.332031 18.71875 C 68.960938 19.285156 69.269531 20.007812 69.269531 20.929688 C 69.269531 22.160156 68.863281 22.988281 68.027344 23.464844 C 67.113281 23.988281 65.746094 24.25 63.96875 24.25 C 62.046875 24.25 60.445312 24.019531 59.207031 23.558594 L 58.714844 23.375 L 57.855469 26.132812 L 58.328125 26.28125 C 60.019531 26.816406 61.929688 27.085938 63.992188 27.085938 C 69.558594 27.085938 72.378906 25.003906 72.378906 20.902344 C 72.378906 18.96875 71.777344 17.492188 70.597656 16.503906 Z M 70.597656 16.503906 " fill-opacity="1" fill-rule="nonzero"/><path fill="#4e4d4d" d="M 76.011719 6.265625 L 79.011719 6.265625 L 79.011719 26.695312 L 76.011719 26.695312 Z M 76.011719 6.265625 " fill-opacity="1" fill-rule="nonzero"/><path fill="#4e4d4d" d="M 99.074219 11.617188 C 98.6875 10.273438 98.066406 9.191406 97.222656 8.40625 C 96.386719 7.628906 95.382812 7.074219 94.230469 6.746094 C 93.113281 6.425781 91.726562 6.265625 90.109375 6.265625 L 83.621094 6.265625 L 83.621094 26.695312 L 90.109375 26.695312 C 93.390625 26.695312 95.824219 25.917969 97.347656 24.386719 C 98.867188 22.855469 99.636719 20.183594 99.636719 16.4375 C 99.636719 14.542969 99.449219 12.921875 99.074219 11.617188 Z M 95.105469 22.496094 C 94.195312 23.511719 92.515625 24.03125 90.113281 24.03125 L 86.621094 24.03125 L 86.621094 8.933594 L 90.113281 8.933594 C 91.402344 8.933594 92.441406 9.027344 93.199219 9.210938 C 93.90625 9.386719 94.53125 9.734375 95.058594 10.253906 C 95.582031 10.769531 95.953125 11.507812 96.164062 12.449219 C 96.386719 13.453125 96.5 14.792969 96.5 16.441406 C 96.5 19.421875 96.03125 21.460938 95.105469 22.496094 Z M 95.105469 22.496094 " fill-opacity="1" fill-rule="nonzero"/><path fill="#4e4d4d" d="M 116.546875 8.933594 L 116.546875 6.265625 L 103.214844 6.265625 L 103.214844 26.695312 L 106.214844 26.695312 L 106.214844 18.078125 L 114.214844 18.078125 L 114.214844 15.414062 L 106.214844 15.414062 L 106.214844 8.933594 Z M 116.546875 8.933594 " fill-opacity="1" fill-rule="nonzero"/><path fill="#4a9a1c" d="M 131.984375 6.234375 L 126.085938 16.464844 L 129.105469 21.707031 L 133.085938 21.707031 L 130.066406 16.464844 L 133.984375 9.695312 L 141.789062 9.695312 L 145.703125 16.464844 L 141.789062 23.234375 L 139.945312 23.234375 L 137.949219 26.695312 L 143.785156 26.695312 L 149.6875 16.464844 L 143.785156 6.234375 Z M 131.984375 6.234375 " fill-opacity="1" fill-rule="nonzero"/><path fill="#4a9a1c" d="M 124.386719 6.234375 L 118.46875 16.464844 L 124.386719 26.695312 L 136.1875 26.695312 L 142.085938 16.464844 L 139.066406 11.222656 L 135.070312 11.222656 L 138.089844 16.464844 L 134.1875 23.234375 L 126.367188 23.234375 L 122.464844 16.464844 L 126.367188 9.695312 L 128.226562 9.695312 L 130.207031 6.234375 Z M 124.386719 6.234375 " fill-opacity="1" fill-rule="nonzero"/><path fill="#52555a" d="M 47.417969 5.886719 L 47.710938 5.886719 L 47.710938 39.210938 L 47.417969 39.210938 Z M 47.417969 5.886719 " fill-opacity="1" fill-rule="nonzero"/></svg>